<svg width="36" height="36" viewBox="0 0 36 34" fill="none" xmlns="http://www.w3.org/2000/svg">
  <path d="M27.1999 11.9C27.0288 9.87967 26.1912 7.97348 24.8187 6.48103C23.4463 4.98858 21.6168 3.99449 19.6179 3.655C19.7199 2.482 19.6009 0 16.9999 0C14.3989 0 14.2799 2.482 14.3819 3.655C12.383 3.99449 10.5535 4.98858 9.18106 6.48103C7.80862 7.97348 6.97102 9.87967 6.7999 11.9V22.1L3.3999 25.5V27.2H30.5999V25.5L27.1999 22.1V11.9ZM16.9999 34C18.3525 34 19.6497 33.4627 20.6061 32.5062C21.5626 31.5498 22.0999 30.2526 22.0999 28.9H11.8999C11.8999 30.2526 12.4372 31.5498 13.3937 32.5062C14.3501 33.4627 15.6473 34 16.9999 34Z" fill="#FFB900" stroke="#111111" stroke-width="1" stroke-linecap="round" stroke-linejoin="round"/>
</svg>
