<svg width="21" height="20" viewBox="0 0 21 20" fill="none" xmlns="http://www.w3.org/2000/svg">
    <g clip-path="url(#clip0_17_72)">
    <path d="M8.15384 0.00975227C8.11282 0.0130043 7.97993 0.0227604 7.85853 0.0325165C5.92095 0.186987 4.02931 1.03414 2.63478 2.37398C2.1147 2.87317 1.7029 3.37235 1.3354 3.94634C0.59876 5.09756 0.172197 6.34959 0.0294629 7.78048C0.00157226 8.06178 0.00157226 8.95122 0.0294629 9.2439C0.142666 10.4439 0.477354 11.561 1.0204 12.561C1.84071 14.0699 3.08103 15.2845 4.61173 16.0797C6.11946 16.8618 7.88642 17.1805 9.614 16.9821C11.0381 16.8195 12.449 16.2829 13.5958 15.4683C13.6877 15.4032 13.7664 15.3496 13.773 15.3496C13.7779 15.3496 14.8246 16.3057 16.0994 17.4748C17.3725 18.6423 18.457 19.6309 18.5062 19.6699C18.6243 19.7642 18.8917 19.8943 19.0558 19.9382C19.2461 19.9886 19.6382 19.9886 19.8269 19.9382C20.8113 19.6699 21.2772 18.5772 20.7801 17.7024C20.6521 17.478 20.9048 17.7154 17.6416 14.7252L15.8697 13.1024L16.0075 12.8715C16.2815 12.4163 16.5653 11.8032 16.7442 11.2813C17.4053 9.35122 17.3479 7.23739 16.5834 5.33658C15.9468 3.74959 14.8213 2.37723 13.3858 1.43089C12.1947 0.64715 10.897 0.188614 9.44993 0.0406456C9.21368 0.0162563 8.33103 -0.00488281 8.15384 0.00975227ZM9.16118 3.06504C10.2374 3.17886 11.207 3.57561 12.0667 4.25365C12.2981 4.43577 12.7328 4.86666 12.9182 5.09756C13.8927 6.30731 14.3029 7.80975 14.0749 9.33821C13.7746 11.3528 12.2915 13.0911 10.3277 13.7285C9.68946 13.9366 9.16775 14.0114 8.46064 13.9951C8.02095 13.9854 7.79454 13.9593 7.42376 13.878C5.86517 13.5317 4.54118 12.5528 3.76024 11.1691C3.14829 10.0862 2.93009 8.80487 3.14993 7.57723C3.41243 6.09918 4.29345 4.77561 5.56985 3.94146C6.31634 3.45366 7.13501 3.1626 8.02751 3.06666C8.30478 3.03577 8.88064 3.03577 9.16118 3.06504Z" fill="black" fill-opacity="0.37"/>
    </g>
    <defs>
    <clipPath id="clip0_17_72">
    <rect width="21" height="20" fill="white"/>
    </clipPath>
    </defs>
</svg>
